<svg width="62" height="23" viewBox="0 0 62 23" fill="none" xmlns="http://www.w3.org/2000/svg">
<path d="M0.36 22L4.89 0.579999H13.62L13.14 2.8H6.9L5.28 10.6H11.1L10.62 12.82H4.8L2.85 22H0.36ZM17.933 22.3C16.873 22.3 15.963 22.11 15.203 21.73C14.463 21.35 13.903 20.79 13.523 20.05C13.143 19.31 12.953 18.42 12.953 17.38C12.953 17.02 12.973 16.61 13.013 16.15C13.073 15.69 13.153 15.22 13.253 14.74L16.283 0.579999H18.773L15.713 14.89C15.633 15.29 15.563 15.69 15.503 16.09C15.463 16.49 15.443 16.84 15.443 17.14C15.443 18.1 15.673 18.83 16.133 19.33C16.613 19.81 17.303 20.05 18.203 20.05C19.023 20.05 19.713 19.87 20.273 19.51C20.853 19.13 21.323 18.56 21.683 17.8C22.063 17.04 22.383 16.07 22.643 14.89L25.703 0.579999H28.193L25.073 15.13C24.773 16.59 24.333 17.86 23.753 18.94C23.173 20.02 22.413 20.85 21.473 21.43C20.553 22.01 19.373 22.3 17.933 22.3ZM26.6084 22L27.0284 20.08L37.7384 2.8H30.8684L31.3484 0.579999H41.0684L40.6784 2.53L29.9084 19.78H37.2284L36.7784 22H26.6084ZM39.735 22L44.265 0.579999H52.965L52.515 2.8H46.275L44.835 9.7H50.625L50.175 11.92H44.355L42.675 19.78H48.915L48.435 22H39.735ZM52.0397 22L56.5697 0.579999H59.0597L54.9797 19.78H61.1297L60.6797 22H52.0397Z" fill="#09090B"/>
</svg>
