<svg width="90" height="88" viewBox="0 0 90 88" fill="none" xmlns="http://www.w3.org/2000/svg">
<path d="M89.2054 24.3764C89.2054 24.1664 89.0418 23.999 88.8361 23.9826L61.3568 9.18054H67.1253C67.3037 9.18054 67.4605 9.06238 67.5097 8.89081C67.5589 8.7193 67.4886 8.53589 67.3372 8.44135L63.7905 6.22406C61.1302 4.56085 58.2749 3.28149 55.3072 2.37793C55.2339 2.29382 55.1294 2.23804 55.0091 2.23804C54.9801 2.23804 54.9546 2.24866 54.9274 2.25452C51.7104 1.31445 48.3622 0.825745 44.9721 0.825745C38.3582 0.825745 31.8908 2.66754 26.2693 6.1521L22.5773 8.44061C22.4254 8.53473 22.3543 8.7182 22.4034 8.89008C22.4523 9.06195 22.6093 9.18054 22.7881 9.18054H28.7605L1.00601 24.0209C0.841644 24.1089 0.771088 24.2942 0.813263 24.4672V27.8622C0.805817 27.8928 0.794586 27.9219 0.794586 27.9548V83.1774C0.794586 83.215 0.806305 83.2488 0.815948 83.2833V86.7743C0.815948 86.9952 0.995087 87.1743 1.21597 87.1743H88.8055C89.0263 87.1743 89.2054 86.9952 89.2054 86.7743V83.1774V27.9548V24.3764ZM80.805 82.7774V62.5743H85.0137V82.7774H80.805ZM75.6224 82.7774V62.5743H80.005V82.7774H75.6224ZM70.4051 82.7774V62.5743H74.8224V82.7774H70.4051ZM65.4137 82.7774V80.6011V62.5743H69.605V82.7774H65.4137ZM25.2137 82.7774V80.6011C25.2137 79.8174 25.8512 79.1799 26.6349 79.1799H30.0111H60.0172H63.2447C64.0124 79.1799 64.6137 79.8041 64.6137 80.6011V82.7774H25.2137ZM20.2137 82.7774V62.5743H24.4137V80.6011V82.7774H20.2137ZM15.0013 82.7774V62.5743H19.4137V82.7774H15.0013ZM10.0137 82.7774V62.5743H14.2012V82.7774H10.0137ZM5.02005 82.7774V62.5743H9.21371V82.7774H5.02005ZM60.4173 61.7743V59.9868H85.0137V61.7743H60.4173ZM64.6137 78.8791C64.2419 78.5706 63.7713 78.3799 63.2447 78.3799H60.4173V76.5475V62.5743H64.6137V78.8791ZM26.6349 78.3799C26.0918 78.3799 25.6001 78.5836 25.2137 78.9085V62.5743H29.6128V76.5312C29.6127 76.5368 29.6111 76.542 29.6111 76.5475V78.3799H26.6349ZM5.02005 61.7743V59.9868H29.6089C29.6103 59.9868 29.6114 59.986 29.6128 59.986V61.7743H5.02005ZM8.32162 28.3547L5.02005 31.6563V28.3547H8.32162ZM24.6555 28.3547L29.6128 33.312V36.3046L21.6628 28.3547H24.6555ZM37.3147 28.3547L33.6128 32.0566V28.3547H37.3147ZM51.3812 28.3547L56.2137 33.1872V36.1799L48.3885 28.3547H51.3812ZM63.9743 28.3547L60.4173 31.9119V28.3547H63.9743ZM68.0983 28.3547L60.4173 36.0357V33.0431L65.1055 28.3547H68.0983ZM76.1842 28.3547L85.0137 37.1842V59.1868H60.4173V37.1669L69.2295 28.3547H76.1842ZM80.308 28.3547L85.0137 33.0603V36.053L77.3155 28.3547H80.308ZM59.6172 32.876C59.6172 32.8772 59.6172 32.8785 59.6172 32.8798V74.7002C59.1468 74.2518 58.5088 73.9727 57.8042 73.9727H57.0136V37.3793C57.0742 37.2635 57.0742 37.1292 57.0136 37.0134V28.3547H59.6172V32.876ZM56.2137 32.056L52.5124 28.3547H56.2137V32.056ZM47.2573 28.3547L56.2137 37.3112V73.9727H33.6128V37.3037C33.6205 37.2972 33.63 37.2947 33.6372 37.2875L42.5699 28.3547H47.2573ZM33.6128 36.1807V33.1879L38.446 28.3547H41.4386L33.6128 36.1807ZM32.8128 32.8776C32.7219 33.0123 32.7219 33.1832 32.8128 33.3178V73.9727H32.1859C31.4977 73.9727 30.8751 74.2479 30.4128 74.6892V28.3547H32.8128V32.8776ZM29.6128 32.1807L25.7868 28.3547H29.6128V32.1807ZM20.5365 28.3547C20.5405 28.3591 20.5418 28.3649 20.5461 28.3692L29.6128 37.4359V59.1876C29.6114 59.1876 29.6103 59.1868 29.6089 59.1868H5.02005V36.9116L13.5298 28.4018C13.5437 28.3879 13.5497 28.37 13.5611 28.3547H20.5365ZM5.02005 35.7803V32.7876L9.45291 28.3547H12.4456L5.02005 35.7803ZM30.4111 76.614C30.4112 76.6111 30.4128 76.6087 30.4128 76.6058V76.5312C30.4217 75.5602 31.2129 74.7727 32.1859 74.7727H57.8042C58.787 74.7727 59.6172 75.5855 59.6172 76.5475V78.3799H30.4111V76.614ZM85.0137 31.929L81.4393 28.3547H85.0137V31.929ZM88.4054 27.5547H65.1816C65.0633 27.4907 64.9247 27.4907 64.8062 27.5547H60.0172H56.6136H33.2129H30.0127H24.9521C24.8384 27.4968 24.707 27.4968 24.5933 27.5547H4.62009H1.61325V24.7764H88.4054V27.5547ZM1.59457 28.3547H4.22006V36.7446C4.22006 36.7457 4.22006 36.7467 4.22006 36.7478V82.7774H1.59457V28.3547ZM85.8138 28.3549H88.4054V82.7774H85.8138V28.3549ZM65.7308 8.38055H55.409V3.25177C58.189 4.12921 60.8667 5.33954 63.3665 6.9024L65.7308 8.38055ZM48.8091 8.38055V1.85864C50.7751 2.07709 52.7166 2.44464 54.609 2.99176V8.38055H48.8091ZM48.0091 1.77441V8.38055H42.0137V1.76642C42.9956 1.6825 43.9811 1.62573 44.9721 1.62573C45.9898 1.62573 47.0014 1.68604 48.0091 1.77441ZM35.4137 8.38055V2.96899C37.3067 2.42657 39.2484 2.06409 41.2137 1.85016V8.38055H35.4137ZM26.6908 6.83197C29.1812 5.28827 31.8472 4.09296 34.6137 3.22705V8.38055H24.1927L26.6908 6.83197ZM59.67 9.18054L68.9406 14.1743H63.7275C63.5066 14.1743 63.3275 14.3534 63.3275 14.5743C63.3275 14.7952 63.5066 14.9743 63.7275 14.9743H70.2786C70.3166 14.9743 70.3509 14.9626 70.3857 14.9527L73.0348 16.3796H68.43C68.209 16.3796 68.0299 16.5588 68.0299 16.7797C68.0299 17.0005 68.209 17.1796 68.43 17.1796H74.3867C74.4211 17.1796 74.4518 17.1682 74.4836 17.16L77.119 18.5797H71.9073C71.6864 18.5797 71.5073 18.7587 71.5073 18.9797C71.5073 19.2006 71.6864 19.3796 71.9073 19.3796H78.4659C78.5016 19.3796 78.5335 19.3681 78.5664 19.3593L87.1379 23.9764H2.7858L30.457 9.18054H59.67ZM88.4054 86.3743H1.616V83.5774H4.62009H24.8138H65.0137H85.4137H88.4054V86.3743Z" fill="black"/>
<path d="M69.2246 19.3796H70.4246C70.6455 19.3796 70.8246 19.2006 70.8246 18.9797C70.8246 18.7587 70.6455 18.5797 70.4246 18.5797H69.2246C69.0037 18.5797 68.8246 18.7587 68.8246 18.9797C68.8246 19.2006 69.0037 19.3796 69.2246 19.3796Z" fill="black"/>
</svg>
