<svg width="99" height="42" viewBox="0 0 99 42" fill="none" xmlns="http://www.w3.org/2000/svg">
<path d="M93.1 16H76.2C73.1 16 70.7 18.5 70.7 21.5C70.7 24.5 73.2 27 76.2 27H82.7V34C82.7 36.2 80.9 37.9 78.8 37.9H62.7C60.5 37.9 58.8 36.1 58.8 34V11H76.3C79.4 11 81.8 8.5 81.8 5.5C81.8 2.5 79.2 0 76.2 0H22.3C19.2 0 16.8 2.5 16.8 5.5C16.8 8.5 19.3 11 22.3 11H39.8V34C39.8 36.2 38 37.9 35.9 37.9H19.9C17.7 37.9 16 36.1 16 34V27H22.5C25.6 27 28 24.5 28 21.5C28 18.5 25.5 16 22.5 16H5.5C2.4 16 0 18.5 0 21.5C0 24.5 2.5 27 5.5 27H11.9V34C11.9 38.4 15.5 42 19.9 42H35.9C40.3 42 43.9 38.4 43.9 34V32H54.9V34C54.9 38.4 58.5 42 62.9 42H78.9C83.3 42 86.9 38.4 86.9 34V27H93.4C96.5 27 98.9 24.5 98.9 21.5C98.9 18.5 96.1 16 93.1 16ZM3.8 21.4C3.8 20.6 4.5 19.9 5.3 19.9H22.3C23.1 19.9 23.8 20.6 23.8 21.4C23.8 22.2 23.1 22.9 22.3 22.9H5.4C4.5 22.9 3.8 22.3 3.8 21.4ZM20.8 5.5C20.8 4.7 21.5 4 22.3 4H76.1C76.9 4 77.6 4.7 77.6 5.5C77.6 6.3 76.9 7 76.1 7H22.3C21.5 7 20.8 6.3 20.8 5.5ZM43.7 27.9V11H54.7V28C54.7 27.9 43.7 27.9 43.7 27.9ZM93.1 22.9H76.2C75.4 22.9 74.7 22.2 74.7 21.4C74.7 20.6 75.4 19.9 76.2 19.9H93.2C94 19.9 94.7 20.6 94.7 21.4C94.7 22.3 94 22.9 93.1 22.9Z" fill="black"/>
</svg>
