<svg width="154" height="84" viewBox="0 0 154 84" fill="none" xmlns="http://www.w3.org/2000/svg">
<path d="M38.6818 22.4545H49.9091V52.4773C49.9091 55.947 49.0833 58.9697 47.4318 61.5455C45.7803 64.1061 43.4773 66.0909 40.5227 67.5C37.5682 68.8939 34.1364 69.5909 30.2273 69.5909C26.2727 69.5909 22.8182 68.8939 19.8636 67.5C16.9091 66.0909 14.6136 64.1061 12.9773 61.5455C11.3409 58.9697 10.5227 55.947 10.5227 52.4773V22.4545H21.7727V51.5C21.7727 53.1061 22.1212 54.5379 22.8182 55.7955C23.5303 57.053 24.5227 58.0379 25.7955 58.75C27.0682 59.4621 28.5455 59.8182 30.2273 59.8182C31.9091 59.8182 33.3788 59.4621 34.6364 58.75C35.9091 58.0379 36.9015 57.053 37.6136 55.7955C38.3258 54.5379 38.6818 53.1061 38.6818 51.5V22.4545ZM74.1648 69H56.9602V22.4545H74.142C78.8845 22.4545 82.9678 23.3864 86.392 25.25C89.8314 27.0985 92.483 29.7651 94.3466 33.25C96.2102 36.7197 97.142 40.8712 97.142 45.7045C97.142 50.553 96.2102 54.7197 94.3466 58.2045C92.4981 61.6894 89.8542 64.3636 86.4148 66.2273C82.9754 68.0758 78.892 69 74.1648 69ZM68.2102 59.4091H73.733C76.339 59.4091 78.5436 58.9697 80.3466 58.0909C82.1648 57.197 83.536 55.75 84.4602 53.75C85.3996 51.7348 85.8693 49.053 85.8693 45.7045C85.8693 42.3561 85.3996 39.6894 84.4602 37.7045C83.5208 35.7045 82.1345 34.2652 80.3011 33.3864C78.483 32.4924 76.2405 32.0455 73.5739 32.0455H68.2102V59.4091ZM147.642 45.7273C147.642 50.8485 146.657 55.1894 144.688 58.75C142.718 62.3106 140.051 65.0152 136.688 66.8636C133.339 68.7121 129.581 69.6364 125.415 69.6364C121.233 69.6364 117.468 68.7045 114.119 66.8409C110.771 64.9773 108.112 62.2727 106.142 58.7273C104.188 55.1667 103.21 50.8333 103.21 45.7273C103.21 40.6061 104.188 36.2652 106.142 32.7045C108.112 29.1439 110.771 26.4394 114.119 24.5909C117.468 22.7424 121.233 21.8182 125.415 21.8182C129.581 21.8182 133.339 22.7424 136.688 24.5909C140.051 26.4394 142.718 29.1439 144.688 32.7045C146.657 36.2652 147.642 40.6061 147.642 45.7273ZM136.142 45.7273C136.142 42.697 135.71 40.1364 134.847 38.0455C133.998 35.9545 132.771 34.3712 131.165 33.2955C129.574 32.2197 127.657 31.6818 125.415 31.6818C123.188 31.6818 121.271 32.2197 119.665 33.2955C118.059 34.3712 116.824 35.9545 115.96 38.0455C115.112 40.1364 114.688 42.697 114.688 45.7273C114.688 48.7576 115.112 51.3182 115.96 53.4091C116.824 55.5 118.059 57.0833 119.665 58.1591C121.271 59.2348 123.188 59.7727 125.415 59.7727C127.657 59.7727 129.574 59.2348 131.165 58.1591C132.771 57.0833 133.998 55.5 134.847 53.4091C135.71 51.3182 136.142 48.7576 136.142 45.7273Z" fill="white"/>
<line x1="-8.74228e-08" y1="1" x2="154" y2="0.999987" stroke="white" stroke-width="2"/>
<line x1="15.5" y1="22" x2="15.5" y2="18" stroke="white"/>
<line x1="15.5" y1="16" x2="15.5" y2="12" stroke="white"/>
<line x1="15.5" y1="10" x2="15.5" y2="6" stroke="white"/>
<line x1="15.5" y1="4" x2="15.5" y2="2.18557e-08" stroke="white"/>
<line x1="44.5" y1="23" x2="44.5" y2="19" stroke="white"/>
<line x1="44.5" y1="17" x2="44.5" y2="13" stroke="white"/>
<line x1="44.5" y1="11" x2="44.5" y2="7" stroke="white"/>
<line x1="44.5" y1="5" x2="44.5" y2="1" stroke="white"/>
<line y1="-0.5" x2="4" y2="-0.5" transform="matrix(4.37114e-08 -1 -1 -4.37114e-08 72 23)" stroke="white"/>
<line y1="-0.5" x2="4" y2="-0.5" transform="matrix(4.37114e-08 -1 -1 -4.37114e-08 72 17)" stroke="white"/>
<line y1="-0.5" x2="4" y2="-0.5" transform="matrix(4.37114e-08 -1 -1 -4.37114e-08 72 11)" stroke="white"/>
<line y1="-0.5" x2="4" y2="-0.5" transform="matrix(4.37114e-08 -1 -1 -4.37114e-08 72 5)" stroke="white"/>
<line x1="124.5" y1="23" x2="124.5" y2="19" stroke="white"/>
<line x1="124.5" y1="17" x2="124.5" y2="13" stroke="white"/>
<line x1="124.5" y1="11" x2="124.5" y2="7" stroke="white"/>
<line x1="124.5" y1="5" x2="124.5" y2="1" stroke="white"/>
<line x1="1" y1="2" x2="0.999997" y2="69" stroke="white" stroke-width="2"/>
<line x1="153" y1="2" x2="153" y2="69" stroke="white" stroke-width="2"/>
</svg>
